<?xml version="1.0" encoding="utf-8"?>
<!-- Generator: Adobe Illustrator 19.2.1, SVG Export Plug-In . SVG Version: 6.00 Build 0)  -->
<svg version="1.1" id="Layer_1" xmlns="http://www.w3.org/2000/svg" xmlns:xlink="http://www.w3.org/1999/xlink" x="0px" y="0px"
	 viewBox="0 0 440 710" style="enable-background:new 0 0 440 710;" xml:space="preserve">
<style type="text/css">
	.st0{fill:#CFD8DC;}
	.st1{fill:#263238;}
	.st2{fill:#37474F;}
</style>
<path class="st0" d="M426.2,193.8h-1.8L424,67.5c0-32.7-19.4-57.5-59.3-57.5h-290c-38.9,0-59.4,23.4-59.4,56.1v35.4v14.6
	c-1.1,0-1.8,1.1-1.8,2.2v34.2c0,1.4,0.7,2.2,1.8,2.2v37h-1.8c-1.1,0-1.8,0.7-1.8,1.8v60.1c0,1.1,0.7,1.8,1.8,1.8h1.8v15.8h-1.8
	c-1.1,0-1.8,0.7-1.8,1.8v60c0,1.1,0.7,1.8,1.8,1.8h1.8v15.7V710h6.5V66.5c0-30.9,19.1-51.1,50.4-51.1h296.1
	c33.1,0,50.7,21.2,50.7,51.4V710h5.4V277.2V257h2.2c1.1,0,1.8-1.1,1.8-2.2v-59C428,194.5,427.2,193.8,426.2,193.8z"/>
<path class="st1" d="M368.3,15.4H72.1c-31.3,0-50.4,20.1-50.4,51.1V710H191h228V66.8C419,36.6,401.3,15.4,368.3,15.4z"/>
<path d="M392.7,105H47.3c-2.2,0-4,1.8-4,4v601h353.4V109C396.7,106.7,394.9,105,392.7,105z"/>
<path class="st2" d="M250.2,60h-60.8c-1.8,0-3.2,1.4-3.2,3.6c0,1.8,1.4,3.6,3.2,3.6h60.8c1.8,0,3.2-1.4,3.2-3.6S252,60,250.2,60z"/>
<circle class="st2" cx="151.3" cy="63.6" r="7.6"/>
</svg>
